<?xml version="1.0" encoding="iso-8859-1"?>
<!-- Generator: Adobe Illustrator 18.0.0, SVG Export Plug-In . SVG Version: 6.00 Build 0)  -->
<!DOCTYPE svg PUBLIC "-//W3C//DTD SVG 1.1//EN" "http://www.w3.org/Graphics/SVG/1.1/DTD/svg11.dtd">
<svg version="1.1" id="Capa_1" xmlns="http://www.w3.org/2000/svg" xmlns:xlink="http://www.w3.org/1999/xlink" x="0px" y="0px"
	 viewBox="0 0 495.366 495.366" style="enable-background:new 0 0 495.366 495.366;" xml:space="preserve" width="25" height="25" fill="white">
<g id="XMLID_39_">
	<path id="XMLID_43_" d="M450.747,9.388H44.617C19.98,9.388,0,29.359,0,54.007v143.997c0,24.648,19.98,44.618,44.617,44.618h406.13
		c24.638,0,44.619-19.97,44.619-44.618V54.007C495.366,29.359,475.385,9.388,450.747,9.388z M39.791,70.68
		c0-11.65,9.449-21.098,21.098-21.098c11.658,0,21.107,9.447,21.107,21.098c0,11.652-9.449,21.1-21.107,21.1
		C49.24,91.779,39.791,82.331,39.791,70.68z M413.385,171.905H81.996c-9.125,0-16.509-7.391-16.509-16.511
		c0-9.118,7.384-16.511,16.509-16.511h331.389c9.125,0,16.512,7.394,16.512,16.511C429.897,164.514,422.51,171.905,413.385,171.905z
		"/>
	<path id="XMLID_42_" d="M142.018,318.555c-37.727,13.268-28.811,70.734-26.967,89.222c2.378,23.838,16.034,56.543,2.219,78.202
		c37.235-14.697,28.659-74.452,27.434-85.556C143.398,389.543,129.186,335.831,142.018,318.555z"/>
	<path id="XMLID_41_" d="M383.42,318.555c-37.727,13.268-28.81,70.734-26.967,89.222c2.378,23.838,16.035,56.543,2.219,78.202
		c37.235-14.697,28.659-74.452,27.435-85.556C384.801,389.543,370.59,335.831,383.42,318.555z"/>
	<path id="XMLID_40_" d="M262.199,255.602c-37.727,13.268-28.811,70.734-26.968,89.222c2.378,23.838,16.035,56.543,2.219,78.203
		c37.235-14.697,28.659-74.453,27.435-85.556C263.579,326.591,249.367,272.879,262.199,255.602z"/>
</g>
<g>
</g>
<g>
</g>
<g>
</g>
<g>
</g>
<g>
</g>
<g>
</g>
<g>
</g>
<g>
</g>
<g>
</g>
<g>
</g>
<g>
</g>
<g>
</g>
<g>
</g>
<g>
</g>
<g>
</g>
</svg>
