<?xml version="1.0" encoding="iso-8859-1"?>
<!-- Generator: Adobe Illustrator 18.0.0, SVG Export Plug-In . SVG Version: 6.00 Build 0)  -->
<!DOCTYPE svg PUBLIC "-//W3C//DTD SVG 1.1//EN" "http://www.w3.org/Graphics/SVG/1.1/DTD/svg11.dtd">
<svg version="1.1" id="Capa_1" xmlns="http://www.w3.org/2000/svg" xmlns:xlink="http://www.w3.org/1999/xlink" x="0px" y="0px"
	 viewBox="0 0 478.486 478.486" style="enable-background:new 0 0 478.486 478.486;" xml:space="preserve" width="25" height="25" fill="white">
<g id="XMLID_71_">
	<path id="XMLID_77_" d="M189.983,168.214c1.055,2.628,3.125,4.694,5.758,5.731c2.626,1.029,5.547,0.929,8.101-0.277
		c4.411-2.105,9.442-3.599,14.858-3.599c13.061,0,18.656,7.333,18.656,16.586c-0.351,13.25-12.396,25.976-37.164,48.132
		l-14.645,13.267v11.58c0,2.46,1.996,4.463,4.467,4.463h65.04c6.022,0,10.89-4.88,10.89-10.907c0-6.019-4.868-10.901-10.89-10.901
		h-31.837v-0.356l10.475-8.71c16.378-14.65,30.184-29.837,30.184-48.85c0-20.57-14.141-35.585-39.773-35.585
		c-11.252,0-21.357,2.809-29.326,6.839C190.169,157.964,188.1,163.401,189.983,168.214z"/>
	<path id="XMLID_74_" d="M285.066,237.061h44.193v14.48c0,6.939,5.611,12.556,12.559,12.556c6.932,0,12.553-5.623,12.553-12.556
		v-14.48h3.665c5.508,0,9.951-4.45,9.951-9.942c0-5.499-4.443-9.947-9.951-9.947h-3.665v-60.407c0-3.343-2.71-6.051-6.057-6.051
		h-23.016c-2.094,0-4.025,1.085-5.139,2.856l-40.224,64.756c-0.59,0.951-0.916,2.058-0.916,3.186v9.499
		C279.02,234.353,281.728,237.061,285.066,237.061z M303.787,216.816l15.163-24.769c3.837-7.156,6.806-13.763,10.482-21.103h0.693
		c-0.531,7.34-0.866,14.312-0.866,21.103v25.125h-25.473V216.816z"/>
	<path id="XMLID_73_" d="M402.562,264.097c6.776,0,12.282-5.509,12.282-12.292v-34.633c0-1.78,0.173-3.874,0.803-5.501
		c1.8-4.37,5.851-8.579,12.314-8.579c9.222,0,12.78,7.125,12.78,17.475v31.229c0,6.791,5.508,12.3,12.298,12.3
		c6.8,0,12.308-5.509,12.308-12.3v-33.975c0-23.78-11.978-34.633-27.664-34.633c-4.55,0-9.24,1.137-12.799,3.087
		c-3.878,2.096-7.117,4.68-9.695,8.075h-0.344v-32.845c0-6.785-5.506-12.292-12.282-12.292c-6.79,0-12.306,5.507-12.306,12.292
		v90.298C390.257,258.588,395.772,264.097,402.562,264.097z"/>
	<path id="XMLID_72_" d="M468.493,378.695l-81.107-81.107c-12.516-12.516-32.808-12.516-45.324-0.001l-30.381,43.358
		c-5.469,7.805-14.326,12.539-23.853,12.768c-50.746,1.219-90.296-30.898-103.195-42.824l-13.267-13.158
		c0,0-48.696-45.413-47.2-107.681c0.229-9.513,4.975-18.393,12.768-23.853l43.358-30.38c12.515-12.516,12.515-32.808-0.001-45.324
		L99.185,9.387C86.67-3.128,66.377-3.129,53.862,9.386l-5.964,5.965c-16.585,16.584-26.143,32.27-34.791,57.314
		c-54.166,156.849,84.22,291.895,101.141,308.61c14.705,14.881,134.117,137.664,290.966,83.498
		c25.045-8.649,40.732-18.206,57.315-34.791l5.965-5.965C481.009,411.502,481.008,391.21,468.493,378.695z"/>
</g>
<g>
</g>
<g>
</g>
<g>
</g>
<g>
</g>
<g>
</g>
<g>
</g>
<g>
</g>
<g>
</g>
<g>
</g>
<g>
</g>
<g>
</g>
<g>
</g>
<g>
</g>
<g>
</g>
<g>
</g>
</svg>
