<?xml version="1.0" encoding="iso-8859-1"?>
<!-- Generator: Adobe Illustrator 18.0.0, SVG Export Plug-In . SVG Version: 6.00 Build 0)  -->
<!DOCTYPE svg PUBLIC "-//W3C//DTD SVG 1.1//EN" "http://www.w3.org/Graphics/SVG/1.1/DTD/svg11.dtd">
<svg version="1.1" id="Capa_1" xmlns="http://www.w3.org/2000/svg" xmlns:xlink="http://www.w3.org/1999/xlink" x="0px" y="0px"
	 viewBox="0 0 495.857 495.857" style="enable-background:new 0 0 495.857 495.857;" xml:space="preserve" width="25" height="25" fill="white">
<g id="XMLID_289_">
	<path id="XMLID_295_" d="M301.07,0c-67.757,0-122.894,55.126-122.894,122.886v30.674c-46.024,13.343-81.501,61.592-88.265,110.937
		h-1.296c-9.225,0-16.723,7.487-16.723,16.725c0,9.237,7.497,16.724,16.723,16.724h229.273c9.251,0,16.732-7.487,16.732-16.724
		c0-9.238-7.481-16.725-16.732-16.725h-1.287c-6.746-49.345-42.223-97.594-88.247-110.937v-30.674
		c0-40.092,32.617-72.709,72.715-72.709c40.08,0,72.716,32.617,72.716,72.709v347.885c0,13.859,11.221,25.087,25.084,25.087
		c13.856,0,25.094-11.227,25.094-25.087V122.886C423.964,55.126,368.819,0,301.07,0z"/>
	<path id="XMLID_294_" d="M203.261,307.003c-9.243,0-16.723,7.489-16.723,16.726v62.369c0,9.236,7.48,16.726,16.723,16.726
		c9.251,0,16.732-7.489,16.732-16.726v-62.369C219.993,314.492,212.512,307.003,203.261,307.003z"/>
	<path id="XMLID_293_" d="M303.619,307.003c-9.252,0-16.732,7.489-16.732,16.726v62.369c0,9.236,7.48,16.726,16.732,16.726
		c9.242,0,16.723-7.489,16.723-16.726v-62.369C320.342,314.492,312.861,307.003,303.619,307.003z"/>
	<path id="XMLID_292_" d="M253.44,390.63c-9.244,0-16.725,7.489-16.725,16.726v62.37c0,9.236,7.481,16.725,16.725,16.725
		c9.242,0,16.722-7.489,16.722-16.725v-62.37C270.163,398.12,262.682,390.63,253.44,390.63z"/>
	<path id="XMLID_291_" d="M102.912,307.003c-9.244,0-16.724,7.489-16.724,16.726v62.369c0,9.236,7.48,16.726,16.724,16.726
		c9.243,0,16.723-7.489,16.723-16.726v-62.369C119.635,314.492,112.155,307.003,102.912,307.003z"/>
	<path id="XMLID_290_" d="M153.09,390.63c-9.251,0-16.732,7.489-16.732,16.726v62.37c0,9.236,7.481,16.725,16.732,16.725
		c9.243,0,16.724-7.489,16.724-16.725v-62.37C169.814,398.12,162.333,390.63,153.09,390.63z"/>
</g>
<g>
</g>
<g>
</g>
<g>
</g>
<g>
</g>
<g>
</g>
<g>
</g>
<g>
</g>
<g>
</g>
<g>
</g>
<g>
</g>
<g>
</g>
<g>
</g>
<g>
</g>
<g>
</g>
<g>
</g>
</svg>
