<?xml version="1.0" encoding="iso-8859-1"?>
<!-- Generator: Adobe Illustrator 18.0.0, SVG Export Plug-In . SVG Version: 6.00 Build 0)  -->
<!DOCTYPE svg PUBLIC "-//W3C//DTD SVG 1.1//EN" "http://www.w3.org/Graphics/SVG/1.1/DTD/svg11.dtd">
<svg version="1.1" id="Capa_1" xmlns="http://www.w3.org/2000/svg" xmlns:xlink="http://www.w3.org/1999/xlink" x="0px" y="0px"
	 viewBox="0 0 493.977 493.977" style="enable-background:new 0 0 493.977 493.977;" xml:space="preserve" width="25" height="25" fill="white">
<g id="XMLID_370_">
	<path id="XMLID_375_" d="M201.513,322.074c-2.703,6.134-4.248,12.862-4.248,19.977c0,27.42,22.309,49.74,49.739,49.74
		c7.117,0,13.847-1.562,19.964-4.256L201.513,322.074z"/>
	<path id="XMLID_374_" d="M290.792,365.117c3.669-6.929,5.938-14.696,5.938-23.066c0-27.421-22.309-49.724-49.726-49.724
		c-8.369,0-16.128,2.268-23.066,5.931L290.792,365.117z"/>
	<path id="XMLID_371_" d="M247.599,0c-58.255,0-105.661,47.397-105.661,105.662c0,17.152,13.906,31.061,31.052,31.061
		c17.158,0,31.068-13.909,31.068-31.061c0-24.009,19.542-43.534,43.54-43.534c24.003,0,43.529,19.525,43.529,43.534
		c0,21.452-15.602,39.334-36.041,42.883c-8.917,1.562-18.159,3.654-26.885,6.101l-18.865,5.305
		c-40.565,11.405-68.608,48.404-68.608,90.546v217.402c0,14.407,11.671,26.078,26.081,26.078h160.086
		c14.392,0,26.063-11.655,26.063-26.055c0.076-86.844,0.289-361.15,0.289-362.261C353.248,47.397,305.856,0,247.599,0z
		 M247.004,424.483c-45.456,0-82.45-36.975-82.45-82.433c0-45.451,36.994-82.425,82.45-82.425c45.444,0,82.421,36.975,82.421,82.425
		C329.425,387.508,292.448,424.483,247.004,424.483z"/>
</g>
<g>
</g>
<g>
</g>
<g>
</g>
<g>
</g>
<g>
</g>
<g>
</g>
<g>
</g>
<g>
</g>
<g>
</g>
<g>
</g>
<g>
</g>
<g>
</g>
<g>
</g>
<g>
</g>
<g>
</g>
</svg>
