<?xml version="1.0" encoding="iso-8859-1"?>
<!-- Generator: Adobe Illustrator 19.0.0, SVG Export Plug-In . SVG Version: 6.00 Build 0)  -->
<svg version="1.1" id="Layer_1" xmlns="http://www.w3.org/2000/svg" xmlns:xlink="http://www.w3.org/1999/xlink" x="0px" y="0px"
	 viewBox="0 0 512.002 512.002" style="enable-background:new 0 0 512.002 512.002;" xml:space="preserve" width="25" height="25" fill="white">
<g>
	<g>
		<path d="M471.172,310.142c-2.752-2.963-6.616-4.659-10.659-4.659h-16.478v-21.915c0-21.872-17.784-39.667-39.651-39.687
			c-1.216-4.685-4.077-8.96-8.431-11.842l-43.154-28.568l-0.29-57.927c-0.133-26.491-21.84-47.861-48.103-47.861
			c-11.266,0-97.792,0-109.124,0c-26.396,0-47.97,21.474-48.103,47.862l-0.75,149.332c-0.001,0.128,0.016,0.25,0.017,0.378
			c0.147,10.98,9.06,19.994,20.207,20.051c0.034,0,0.07,0,0.105,0c11.178,0,20.268-9.034,20.325-20.225
			c0.033-6.603,0.718-142.835,0.75-149.332c0.001-0.148,0.016-0.293,0.024-0.438c0-0.001,0-0.002,0-0.003
			c0.136-2.11,1.922-3.731,4.036-3.662s3.788,1.803,3.788,3.918l0.009,341.885c0,13.472,10.921,24.392,24.392,24.392
			s24.392-10.921,24.392-24.392V292.479h10.531v194.968c0,13.472,10.921,24.392,24.392,24.392s24.392-10.921,24.392-24.392
			c0-318.168-0.432-143.99-0.443-341.252c0-2.268,1.774-4.14,4.04-4.26c2.265-0.12,4.231,1.553,4.467,3.809c0,0.001,0,0.001,0,0.002
			l0.346,68.782c0.034,6.783,3.45,13.102,9.106,16.847c10.141,6.713,38.654,25.588,48.376,32.025
			c-3.204,5.59-5.026,12.075-5.026,19.053c0,6.145,4.981,11.125,11.125,11.125s11.125-4.981,11.125-11.125
			c0-9.307,7.496-16.325,17.438-16.325c9.616,0,17.438,7.822,17.438,17.438v21.915h-95.742v177.688
			c14.825-0.189,29.321-2.693,43.028-7.277l26.628,29.721c7.071,7.892,19.202,8.56,27.096,1.487
			c7.893-7.071,8.559-19.203,1.487-27.096l-19.622-21.901c16.677-11.504,30.961-26.606,41.551-44.612
			c16.193-27.528,26.386-58.899,28.82-92.384C475.324,317.078,473.924,313.105,471.172,310.142z"/>
	</g>
</g>
<g>
	<g>
		<path d="M166.758,337.557h-0.105v-0.001h-0.056h-0.056c-20.073-0.1-36.483-13.965-41.059-32.072H51.489
			c-4.046,0-7.911,1.684-10.665,4.649c-2.755,2.965-4.146,6.942-3.853,10.979c2.434,33.484,12.627,64.855,28.82,92.384
			c10.602,18.025,24.873,33.13,41.535,44.629l-19.606,21.884c-7.071,7.893-6.406,20.024,1.486,27.096
			c7.891,7.071,20.022,6.408,27.096-1.486l26.616-29.707c9.821,3.28,20.049,5.5,30.52,6.563V337.031
			C171.262,337.377,169.03,337.557,166.758,337.557z"/>
	</g>
</g>
<g>
	<g>
		<path d="M250.014,0c-23.266,0-42.127,18.861-42.127,42.127c0,23.29,18.923,42.128,42.127,42.128
			c23.171,0,42.127-18.797,42.127-42.127C292.142,18.861,273.281,0,250.014,0z"/>
	</g>
</g>
<g>
</g>
<g>
</g>
<g>
</g>
<g>
</g>
<g>
</g>
<g>
</g>
<g>
</g>
<g>
</g>
<g>
</g>
<g>
</g>
<g>
</g>
<g>
</g>
<g>
</g>
<g>
</g>
<g>
</g>
</svg>
